<svg width="1470" height="748" viewBox="0 0 1470 748" fill="none" xmlns="http://www.w3.org/2000/svg">
<g clip-path="url(#clip0)">
<g opacity="0.02">
<path d="M36.71 87.3999L81.13 118.85V150L117.56 208L171.07 130.49L239.37 149.31" stroke="black" stroke-width="2" stroke-miterlimit="10"/>
<path d="M117.56 208L169.88 223L202.65 237.74" stroke="black" stroke-width="2" stroke-miterlimit="10"/>
<path d="M81.13 150L36.05 145.11L43.78 290.23L0.0100098 289.9" stroke="black" stroke-width="2" stroke-miterlimit="10"/>
<path d="M43.78 290.23L83.17 258.35L112.33 293.27L149.14 262.56L188.13 312.87L185.2 374.94" stroke="black" stroke-width="2" stroke-miterlimit="10"/>
<path d="M253.13 339.95L223.1 289.9L276.41 303.81" stroke="black" stroke-width="2" stroke-miterlimit="10"/>
<path d="M143.09 86.24L171.08 130.49" stroke="black" stroke-width="2" stroke-miterlimit="10"/>
<path d="M41.0201 380L40.5701 416.04" stroke="black" stroke-width="2" stroke-miterlimit="10"/>
<path d="M182.57 477.33L236.43 450.93L238.46 381.4L270.51 364.05" stroke="black" stroke-width="2" stroke-miterlimit="10"/>
<path d="M323.64 388.46L332.29 410.99L341.13 452.42L383.25 480.48" stroke="black" stroke-width="2" stroke-miterlimit="10"/>
<path d="M300.01 472.75L341.12 452.42" stroke="black" stroke-width="2" stroke-miterlimit="10"/>
<path d="M360.28 364.93L405.72 358.83L433.34 331.38L429.41 396.19L401.97 426.67" stroke="black" stroke-width="2" stroke-miterlimit="10"/>
<path d="M48.82 178.01L36.05 145.11L29.03 191.58" stroke="black" stroke-width="1.5" stroke-miterlimit="10"/>
<path d="M143.09 86.2399L96.46 91.6499L78.23 81.9099" stroke="black" stroke-width="1.5" stroke-miterlimit="10"/>
<path d="M202.65 237.74V155.68" stroke="black" stroke-width="1.5" stroke-miterlimit="10"/>
<path d="M83.1699 258.35L110.8 237.74" stroke="black" stroke-width="1.5" stroke-miterlimit="10"/>
<path d="M20.5801 234.89L43.7801 290.23" stroke="black" stroke-width="1.5" stroke-miterlimit="10"/>
<path d="M188.13 312.87L163.17 307.83L171.89 325.24L141.74 341.35L185.2 374.94" stroke="black" stroke-width="1.5" stroke-miterlimit="10"/>
<path d="M122.53 362.71L141.74 341.35" stroke="black" stroke-width="1.5" stroke-miterlimit="10"/>
<path d="M227.38 340.73L211.13 357.66L238.46 381.4" stroke="black" stroke-width="1.5" stroke-miterlimit="10"/>
<path d="M236.43 450.93L208.63 416.04L169.88 395.72L141 396.19L135.63 435.15" stroke="black" stroke-width="1.5" stroke-miterlimit="10"/>
<path d="M207.69 261.33L223.1 289.9" stroke="black" stroke-width="1.5" stroke-miterlimit="10"/>
<path d="M276.41 303.81L301.66 308.86L357.64 308.07V258.38L375.77 277.83" stroke="black" stroke-width="1.5" stroke-miterlimit="10"/>
<path d="M351.79 241.97L357.64 258.38" stroke="black" stroke-width="1.5" stroke-miterlimit="10"/>
<path d="M332.29 410.99L294.46 447.37" stroke="black" stroke-width="1.5" stroke-miterlimit="10"/>
<path d="M326.11 499.68L341.12 452.42" stroke="black" stroke-width="1.5" stroke-miterlimit="10"/>
<path d="M405.72 358.83L376.03 380.74L365.32 409.15" stroke="black" stroke-width="1.5" stroke-miterlimit="10"/>
<path d="M443.79 426.67L429.41 396.19L478.57 388.46" stroke="black" stroke-width="1.5" stroke-miterlimit="10"/>
<path d="M451.72 302.78L433.34 331.38" stroke="black" stroke-width="1.5" stroke-miterlimit="10"/>
<path d="M67.78 90.9399L78.23 81.9099" stroke="black" stroke-miterlimit="10"/>
<path d="M171.08 130.49L186.83 103.31" stroke="black" stroke-miterlimit="10"/>
<path d="M239.37 149.31L249.75 126.57" stroke="black" stroke-miterlimit="10"/>
<path d="M202.65 237.74L230.87 194.58" stroke="black" stroke-miterlimit="10"/>
<path d="M135.63 435.15L143.76 445.35" stroke="black" stroke-miterlimit="10"/>
<path d="M141 396.19L110.67 386.73" stroke="black" stroke-miterlimit="10"/>
<path d="M147.13 372.17L141.74 341.35L118.97 339.33" stroke="black" stroke-miterlimit="10"/>
<path d="M182.57 477.33L152.23 463.67" stroke="black" stroke-miterlimit="10"/>
<path d="M270.51 364.05L287.01 337.43" stroke="black" stroke-miterlimit="10"/>
<path d="M307.71 285.54L301.66 308.86L309.73 323.92" stroke="black" stroke-miterlimit="10"/>
<path d="M375.13 323.66L357.64 308.07L382.45 297.62" stroke="black" stroke-miterlimit="10"/>
<path d="M375.78 277.83L403.99 280.78" stroke="black" stroke-miterlimit="10"/>
<path d="M383.26 480.48L393.49 457.82" stroke="black" stroke-miterlimit="10"/>
<path d="M11.7 368.25L41.02 380L55.79 400.77" stroke="black" stroke-miterlimit="10"/>
<path d="M44.58 358.18L41.02 380" stroke="black" stroke-miterlimit="10"/>
</g>
<g opacity="0.04">
<path d="M44.29 88.8799C44.578 87.3814 44.4155 85.8312 43.8229 84.425C43.2304 83.0188 42.2344 81.8198 40.9607 80.9793C39.6871 80.1389 38.193 79.6948 36.6671 79.703C35.1412 79.7112 33.6519 80.1715 32.3875 81.0256C31.123 81.8798 30.14 83.0895 29.5627 84.502C28.9853 85.9145 28.8395 87.4664 29.1437 88.9617C29.4479 90.457 30.1883 91.8287 31.2716 92.9034C32.3549 93.9781 33.7324 94.7076 35.23 94.9999C36.2269 95.1945 37.2523 95.1904 38.2476 94.988C39.2429 94.7855 40.1884 94.3886 41.0301 93.8201C41.8717 93.2516 42.5929 92.5226 43.1523 91.6749C43.7117 90.8271 44.0983 89.8773 44.29 88.8799Z" fill="black"/>
<path d="M81.1201 126.57C85.3838 126.57 88.8401 123.114 88.8401 118.85C88.8401 114.586 85.3838 111.13 81.1201 111.13C76.8565 111.13 73.4001 114.586 73.4001 118.85C73.4001 123.114 76.8565 126.57 81.1201 126.57Z" fill="black"/>
<path d="M87.8858 153.725C89.9424 149.99 88.582 145.295 84.8472 143.238C81.1124 141.182 76.4175 142.542 74.3608 146.277C72.3042 150.012 73.6646 154.707 77.3995 156.763C81.1343 158.82 85.8292 157.46 87.8858 153.725Z" fill="black"/>
<path d="M51.36 291.71C51.652 290.212 51.4931 288.66 50.9035 287.252C50.3139 285.844 49.32 284.642 48.0475 283.799C46.7751 282.955 45.2811 282.508 43.7545 282.514C42.2279 282.519 40.7372 282.977 39.4709 283.83C38.2046 284.682 37.2195 285.891 36.6401 287.304C36.0607 288.716 35.9131 290.269 36.2159 291.765C36.5187 293.261 37.2583 294.634 38.3412 295.71C39.4242 296.786 40.8018 297.517 42.3 297.81C44.3102 298.201 46.3932 297.778 48.0918 296.634C49.7904 295.49 50.9658 293.719 51.36 291.71Z" fill="black"/>
<path d="M83.1701 266.07C87.4337 266.07 90.8901 262.614 90.8901 258.35C90.8901 254.086 87.4337 250.63 83.1701 250.63C78.9064 250.63 75.4501 254.086 75.4501 258.35C75.4501 262.614 78.9064 266.07 83.1701 266.07Z" fill="black"/>
<path d="M120.037 293.846C120.35 289.594 117.156 285.893 112.904 285.581C108.651 285.269 104.951 288.463 104.639 292.715C104.327 296.967 107.521 300.667 111.773 300.98C116.025 301.292 119.725 298.098 120.037 293.846Z" fill="black"/>
<path d="M36.0501 152.83C40.3137 152.83 43.7701 149.374 43.7701 145.11C43.7701 140.846 40.3137 137.39 36.0501 137.39C31.7864 137.39 28.3301 140.846 28.3301 145.11C28.3301 149.374 31.7864 152.83 36.0501 152.83Z" fill="black"/>
<path d="M125.15 209.48C125.445 207.979 125.287 206.424 124.698 205.013C124.109 203.602 123.114 202.397 121.839 201.551C120.565 200.705 119.069 200.257 117.539 200.262C116.01 200.267 114.516 200.725 113.248 201.58C111.979 202.434 110.992 203.645 110.412 205.06C109.832 206.476 109.685 208.031 109.989 209.53C110.294 211.029 111.036 212.404 112.122 213.481C113.208 214.557 114.589 215.288 116.09 215.58C118.1 215.97 120.183 215.547 121.882 214.404C123.581 213.26 124.756 211.489 125.15 209.48Z" fill="black"/>
<path d="M178.66 132C178.955 130.499 178.797 128.945 178.208 127.533C177.619 126.122 176.624 124.917 175.349 124.071C174.075 123.225 172.579 122.777 171.049 122.782C169.52 122.787 168.026 123.245 166.758 124.1C165.489 124.954 164.502 126.165 163.922 127.58C163.342 128.996 163.195 130.551 163.499 132.05C163.804 133.549 164.546 134.924 165.632 136.001C166.718 137.077 168.099 137.808 169.6 138.1C171.61 138.49 173.693 138.067 175.392 136.924C177.091 135.78 178.266 134.009 178.66 132Z" fill="black"/>
<path d="M150.67 87.72C150.962 86.2216 150.803 84.6702 150.214 83.2621C149.624 81.8539 148.63 80.6522 147.358 79.8088C146.085 78.9654 144.591 78.5182 143.065 78.5237C141.538 78.5293 140.047 78.9873 138.781 79.8399C137.515 80.6925 136.53 81.9014 135.95 83.3138C135.371 84.7262 135.223 86.2786 135.526 87.7749C135.829 89.2712 136.568 90.6441 137.651 91.7201C138.734 92.7961 140.112 93.5268 141.61 93.82C142.606 94.0148 143.63 94.0115 144.624 93.8103C145.618 93.6091 146.563 93.214 147.404 92.6475C148.246 92.081 148.967 91.3542 149.527 90.5087C150.088 89.6632 150.476 88.7156 150.67 87.72Z" fill="black"/>
<path d="M83.1801 82.8699C83.3575 81.901 83.2448 80.9014 82.8562 79.9963C82.4675 79.0913 81.8202 78.3212 80.9955 77.7827C80.1708 77.2442 79.2054 76.9613 78.2205 76.9694C77.2356 76.9776 76.275 77.2764 75.4593 77.8285C74.6436 78.3806 74.0092 79.1613 73.6355 80.0726C73.2619 80.9839 73.1658 81.9853 73.3592 82.9511C73.5526 83.9169 74.027 84.804 74.7227 85.5012C75.4185 86.1984 76.3047 86.6745 77.2701 86.8699C77.9213 87.0017 78.5922 87.0024 79.2437 86.8719C79.8952 86.7414 80.5141 86.4824 81.0644 86.11C81.6146 85.7376 82.0851 85.2592 82.4484 84.7029C82.8116 84.1466 83.0604 83.5234 83.1801 82.8699Z" fill="black"/>
<path d="M101.136 93.4879C102.155 90.8977 100.881 87.9717 98.2912 86.9524C95.701 85.9332 92.7749 87.2067 91.7557 89.7969C90.7364 92.3871 92.0099 95.3131 94.6001 96.3323C97.1903 97.3516 100.116 96.0781 101.136 93.4879Z" fill="black"/>
<path d="M53.77 179C53.9474 178.031 53.8348 177.031 53.4461 176.126C53.0575 175.221 52.4102 174.451 51.5855 173.913C50.7608 173.374 49.7954 173.091 48.8105 173.099C47.8255 173.107 46.865 173.406 46.0493 173.958C45.2336 174.51 44.5991 175.291 44.2255 176.202C43.8519 177.114 43.7557 178.115 43.9492 179.081C44.1426 180.047 44.6169 180.934 45.3127 181.631C46.0085 182.328 46.8946 182.804 47.86 183C48.5112 183.132 49.1822 183.132 49.8337 183.002C50.4852 182.871 51.1041 182.612 51.6543 182.24C52.2046 181.867 52.6751 181.389 53.0383 180.833C53.4016 180.276 53.6503 179.653 53.77 179Z" fill="black"/>
<path d="M69.76 91.3198C69.8307 90.9325 69.7855 90.533 69.6301 90.1712C69.4747 89.8095 69.216 89.5017 68.8864 89.2864C68.5569 89.0711 68.1711 88.9578 67.7774 88.9608C67.3837 88.9637 66.9997 89.0828 66.6734 89.3031C66.3471 89.5234 66.0931 89.835 65.9432 90.199C65.7933 90.5631 65.7541 90.9632 65.8306 91.3494C65.9071 91.7356 66.0959 92.0906 66.3733 92.3699C66.6507 92.6493 67.0044 92.8405 67.39 92.9198C67.6509 92.9734 67.9199 92.9743 68.1812 92.9226C68.4425 92.8708 68.6908 92.7673 68.9115 92.6183C69.1323 92.4693 69.3211 92.2776 69.4668 92.0546C69.6125 91.8317 69.7122 91.5818 69.76 91.3198Z" fill="black"/>
<path d="M188.81 103.7C188.881 103.313 188.836 102.913 188.68 102.551C188.525 102.19 188.266 101.882 187.936 101.667C187.607 101.451 187.221 101.338 186.827 101.341C186.434 101.344 186.05 101.463 185.723 101.683C185.397 101.903 185.143 102.215 184.993 102.579C184.843 102.943 184.804 103.343 184.881 103.73C184.957 104.116 185.146 104.471 185.423 104.75C185.701 105.029 186.054 105.221 186.44 105.3C186.701 105.354 186.97 105.354 187.231 105.303C187.493 105.251 187.741 105.147 187.962 104.998C188.182 104.849 188.371 104.658 188.517 104.435C188.663 104.212 188.762 103.962 188.81 103.7Z" fill="black"/>
<path d="M251.74 127C251.813 126.613 251.769 126.212 251.615 125.85C251.462 125.487 251.204 125.178 250.875 124.961C250.546 124.744 250.16 124.629 249.766 124.631C249.372 124.633 248.987 124.751 248.66 124.97C248.333 125.19 248.078 125.501 247.927 125.865C247.776 126.229 247.736 126.629 247.812 127.016C247.888 127.403 248.076 127.758 248.353 128.038C248.63 128.318 248.984 128.51 249.37 128.59C249.63 128.644 249.899 128.645 250.159 128.594C250.42 128.543 250.668 128.44 250.889 128.292C251.109 128.144 251.298 127.953 251.444 127.732C251.591 127.51 251.691 127.261 251.74 127Z" fill="black"/>
<path d="M232.86 195C232.933 194.613 232.889 194.212 232.735 193.85C232.581 193.487 232.324 193.178 231.995 192.961C231.666 192.744 231.28 192.629 230.886 192.631C230.492 192.633 230.107 192.751 229.78 192.97C229.453 193.19 229.198 193.501 229.047 193.865C228.896 194.229 228.856 194.629 228.932 195.016C229.008 195.403 229.196 195.758 229.473 196.038C229.75 196.318 230.104 196.51 230.49 196.59C230.75 196.644 231.019 196.645 231.279 196.594C231.54 196.543 231.788 196.44 232.009 196.292C232.229 196.144 232.418 195.953 232.564 195.732C232.71 195.51 232.811 195.261 232.86 195Z" fill="black"/>
<path d="M121 339.72C121.071 339.333 121.025 338.933 120.87 338.571C120.715 338.21 120.456 337.902 120.126 337.687C119.797 337.471 119.411 337.358 119.017 337.361C118.624 337.364 118.24 337.483 117.913 337.703C117.587 337.924 117.333 338.235 117.183 338.599C117.033 338.963 116.994 339.363 117.071 339.75C117.147 340.136 117.336 340.491 117.613 340.77C117.891 341.049 118.244 341.241 118.63 341.32C118.891 341.374 119.16 341.374 119.421 341.323C119.682 341.271 119.931 341.167 120.152 341.018C120.372 340.869 120.561 340.678 120.707 340.455C120.852 340.232 120.952 339.982 121 339.72Z" fill="black"/>
<path d="M149.11 372.56C149.183 372.173 149.139 371.773 148.985 371.41C148.831 371.047 148.574 370.738 148.245 370.521C147.916 370.304 147.53 370.19 147.136 370.191C146.742 370.193 146.357 370.311 146.03 370.53C145.703 370.75 145.448 371.061 145.297 371.425C145.146 371.789 145.106 372.189 145.182 372.576C145.258 372.963 145.446 373.318 145.723 373.598C146 373.878 146.354 374.07 146.74 374.15C147 374.204 147.269 374.205 147.529 374.154C147.79 374.103 148.038 374 148.259 373.852C148.479 373.704 148.668 373.513 148.814 373.292C148.96 373.07 149.061 372.821 149.11 372.56Z" fill="black"/>
<path d="M112.65 387.12C112.723 386.733 112.679 386.333 112.525 385.97C112.371 385.607 112.114 385.298 111.785 385.081C111.456 384.864 111.07 384.75 110.676 384.751C110.282 384.753 109.897 384.871 109.57 385.09C109.243 385.31 108.988 385.621 108.837 385.985C108.686 386.349 108.646 386.75 108.722 387.136C108.798 387.523 108.986 387.878 109.263 388.158C109.54 388.438 109.894 388.63 110.28 388.71C110.54 388.764 110.809 388.765 111.069 388.714C111.33 388.663 111.578 388.56 111.799 388.412C112.019 388.264 112.208 388.074 112.354 387.852C112.501 387.63 112.601 387.381 112.65 387.12Z" fill="black"/>
<path d="M57.7702 401.16C57.8428 400.772 57.7994 400.372 57.6455 400.01C57.4916 399.647 57.2339 399.338 56.9049 399.121C56.5759 398.904 56.1902 398.789 55.7962 398.791C55.4022 398.793 55.0174 398.911 54.6902 399.13C54.363 399.35 54.1079 399.661 53.957 400.025C53.8061 400.389 53.766 400.789 53.8418 401.176C53.9177 401.563 54.106 401.918 54.3833 402.198C54.6605 402.478 55.0143 402.67 55.4002 402.75C55.6604 402.803 55.9287 402.805 56.1894 402.754C56.4501 402.702 56.6981 402.6 56.9187 402.452C57.1393 402.304 57.3283 402.113 57.4745 401.891C57.6207 401.67 57.7212 401.421 57.7702 401.16Z" fill="black"/>
<path d="M46.56 358.56C46.6307 358.172 46.5855 357.773 46.4301 357.411C46.2747 357.05 46.016 356.742 45.6865 356.526C45.3569 356.311 44.9711 356.198 44.5775 356.201C44.1838 356.204 43.7998 356.323 43.4735 356.543C43.1472 356.763 42.8932 357.075 42.7432 357.439C42.5933 357.803 42.5542 358.203 42.6307 358.589C42.7072 358.976 42.896 359.331 43.1733 359.61C43.4507 359.889 43.8044 360.081 44.19 360.16C44.4509 360.213 44.7199 360.214 44.9812 360.163C45.2425 360.111 45.4908 360.007 45.7116 359.858C45.9324 359.709 46.1211 359.518 46.2668 359.295C46.4125 359.072 46.5122 358.822 46.56 358.56Z" fill="black"/>
<path d="M13.6801 368.64C13.7527 368.253 13.7093 367.853 13.5554 367.49C13.4015 367.127 13.1438 366.818 12.8148 366.601C12.4858 366.384 12.1001 366.27 11.7061 366.271C11.3121 366.273 10.9273 366.391 10.6001 366.61C10.2729 366.83 10.0178 367.141 9.8669 367.505C9.71597 367.869 9.67591 368.27 9.75175 368.656C9.82759 369.043 10.016 369.399 10.2932 369.678C10.5704 369.958 10.9242 370.15 11.3101 370.23C11.5703 370.284 11.8386 370.285 12.0993 370.234C12.36 370.183 12.608 370.08 12.8286 369.932C13.0492 369.784 13.2382 369.594 13.3844 369.372C13.5306 369.15 13.6311 368.901 13.6801 368.64Z" fill="black"/>
<path d="M145.74 445.74C145.811 445.353 145.765 444.953 145.61 444.591C145.455 444.23 145.196 443.922 144.866 443.707C144.537 443.491 144.151 443.378 143.757 443.381C143.364 443.384 142.98 443.503 142.653 443.723C142.327 443.944 142.073 444.255 141.923 444.619C141.773 444.983 141.734 445.383 141.811 445.77C141.887 446.156 142.076 446.511 142.353 446.79C142.631 447.069 142.984 447.261 143.37 447.34C143.631 447.394 143.9 447.394 144.161 447.343C144.422 447.291 144.671 447.188 144.892 447.038C145.112 446.889 145.301 446.698 145.447 446.475C145.592 446.252 145.692 446.002 145.74 445.74Z" fill="black"/>
<path d="M154.21 464.05C154.281 463.662 154.236 463.262 154.081 462.9C153.925 462.538 153.666 462.229 153.336 462.014C153.006 461.798 152.62 461.685 152.225 461.689C151.831 461.692 151.447 461.812 151.121 462.033C150.794 462.255 150.541 462.567 150.392 462.932C150.242 463.297 150.204 463.698 150.282 464.084C150.36 464.471 150.551 464.825 150.83 465.104C151.109 465.382 151.464 465.572 151.85 465.65C152.11 465.702 152.378 465.702 152.638 465.649C152.898 465.597 153.146 465.493 153.365 465.344C153.585 465.195 153.773 465.004 153.918 464.782C154.063 464.56 154.162 464.311 154.21 464.05Z" fill="black"/>
<path d="M289 337.81C289.071 337.422 289.025 337.023 288.87 336.661C288.715 336.3 288.456 335.992 288.126 335.776C287.797 335.561 287.411 335.448 287.017 335.451C286.624 335.454 286.24 335.573 285.913 335.793C285.587 336.013 285.333 336.325 285.183 336.689C285.033 337.053 284.994 337.453 285.071 337.839C285.147 338.226 285.336 338.581 285.613 338.86C285.891 339.139 286.244 339.331 286.63 339.41C286.891 339.463 287.16 339.464 287.421 339.413C287.682 339.361 287.931 339.257 288.152 339.108C288.372 338.959 288.561 338.768 288.707 338.545C288.852 338.322 288.952 338.072 289 337.81Z" fill="black"/>
<path d="M311.71 324.31C311.783 323.923 311.739 323.523 311.585 323.16C311.432 322.797 311.174 322.488 310.845 322.271C310.516 322.054 310.13 321.94 309.736 321.941C309.342 321.943 308.957 322.061 308.63 322.28C308.303 322.5 308.048 322.811 307.897 323.175C307.746 323.539 307.706 323.939 307.782 324.326C307.858 324.713 308.046 325.068 308.323 325.348C308.6 325.628 308.954 325.82 309.34 325.9C309.6 325.954 309.869 325.955 310.129 325.904C310.39 325.853 310.638 325.75 310.859 325.602C311.079 325.454 311.268 325.264 311.414 325.042C311.561 324.82 311.661 324.571 311.71 324.31Z" fill="black"/>
<path d="M309.69 285.93C309.763 285.543 309.719 285.143 309.565 284.78C309.411 284.417 309.154 284.108 308.825 283.891C308.496 283.674 308.11 283.56 307.716 283.561C307.322 283.563 306.937 283.681 306.61 283.9C306.283 284.12 306.028 284.431 305.877 284.795C305.726 285.159 305.686 285.56 305.762 285.946C305.838 286.333 306.026 286.689 306.303 286.969C306.58 287.248 306.934 287.44 307.32 287.52C307.58 287.574 307.849 287.575 308.109 287.524C308.37 287.473 308.618 287.37 308.839 287.222C309.059 287.074 309.248 286.884 309.394 286.662C309.541 286.44 309.641 286.191 309.69 285.93Z" fill="black"/>
<path d="M377.11 324C377.181 323.613 377.136 323.213 376.98 322.851C376.825 322.49 376.566 322.182 376.237 321.967C375.907 321.751 375.521 321.638 375.127 321.641C374.734 321.644 374.35 321.763 374.024 321.983C373.697 322.204 373.443 322.515 373.293 322.879C373.143 323.243 373.104 323.643 373.181 324.03C373.257 324.416 373.446 324.771 373.723 325.05C374.001 325.329 374.354 325.521 374.74 325.6C375.001 325.654 375.27 325.655 375.531 325.603C375.793 325.551 376.041 325.448 376.262 325.298C376.482 325.149 376.671 324.958 376.817 324.735C376.963 324.512 377.062 324.262 377.11 324Z" fill="black"/>
<path d="M384.43 298C384.503 297.613 384.459 297.212 384.305 296.85C384.151 296.487 383.894 296.178 383.565 295.961C383.236 295.744 382.85 295.629 382.456 295.631C382.062 295.633 381.677 295.751 381.35 295.97C381.023 296.19 380.768 296.501 380.617 296.865C380.466 297.229 380.426 297.629 380.502 298.016C380.578 298.403 380.766 298.758 381.043 299.038C381.32 299.318 381.674 299.51 382.06 299.59C382.32 299.644 382.589 299.645 382.849 299.594C383.11 299.543 383.358 299.44 383.579 299.292C383.799 299.144 383.988 298.953 384.134 298.732C384.281 298.51 384.381 298.261 384.43 298Z" fill="black"/>
<path d="M406 281.17C406.071 280.782 406.026 280.382 405.871 280.02C405.715 279.658 405.456 279.349 405.126 279.134C404.796 278.919 404.41 278.805 404.015 278.809C403.621 278.812 403.237 278.932 402.911 279.153C402.584 279.375 402.331 279.687 402.182 280.052C402.033 280.417 401.994 280.818 402.072 281.204C402.15 281.591 402.341 281.945 402.62 282.224C402.899 282.503 403.254 282.692 403.64 282.77C403.9 282.822 404.168 282.822 404.428 282.769C404.689 282.717 404.936 282.613 405.155 282.464C405.375 282.315 405.563 282.124 405.708 281.902C405.853 281.68 405.952 281.431 406 281.17Z" fill="black"/>
<path d="M395.47 458.21C395.543 457.822 395.499 457.422 395.345 457.06C395.192 456.697 394.934 456.388 394.605 456.171C394.276 455.954 393.89 455.839 393.496 455.841C393.102 455.843 392.717 455.961 392.39 456.18C392.063 456.4 391.808 456.711 391.657 457.075C391.506 457.439 391.466 457.839 391.542 458.226C391.618 458.613 391.806 458.968 392.083 459.248C392.36 459.528 392.714 459.72 393.1 459.8C393.36 459.853 393.629 459.855 393.889 459.804C394.15 459.753 394.398 459.65 394.619 459.502C394.839 459.354 395.028 459.163 395.174 458.942C395.321 458.72 395.421 458.471 395.47 458.21Z" fill="black"/>
<path d="M33.9882 192.522C34.515 189.789 32.7264 187.146 29.9932 186.62C27.26 186.093 24.6172 187.881 24.0904 190.615C23.5636 193.348 25.3522 195.991 28.0854 196.517C30.8186 197.044 33.4614 195.256 33.9882 192.522Z" fill="black"/>
<path d="M115.75 238.71C115.927 237.742 115.814 236.742 115.426 235.838C115.037 234.933 114.39 234.164 113.566 233.625C112.742 233.087 111.777 232.804 110.793 232.811C109.808 232.819 108.848 233.117 108.032 233.668C107.217 234.219 106.582 234.999 106.207 235.91C105.833 236.82 105.736 237.821 105.928 238.786C106.12 239.752 106.592 240.639 107.287 241.337C107.981 242.035 108.866 242.513 109.83 242.71C110.481 242.836 111.151 242.833 111.802 242.7C112.452 242.568 113.069 242.308 113.619 241.937C114.169 241.565 114.64 241.089 115.006 240.535C115.371 239.982 115.624 239.361 115.75 238.71Z" fill="black"/>
<path d="M25.5301 235.86C25.7071 234.891 25.5942 233.892 25.2057 232.988C24.8171 232.083 24.1702 231.314 23.3461 230.775C22.5219 230.237 21.5571 229.954 20.5727 229.961C19.5882 229.969 18.628 230.267 17.8123 230.818C16.9966 231.369 16.3617 232.149 15.9873 233.06C15.6129 233.97 15.5156 234.971 15.7076 235.936C15.8996 236.902 16.3723 237.789 17.0666 238.487C17.7608 239.185 18.6456 239.663 19.6101 239.86C20.2621 239.993 20.9341 239.995 21.5867 239.865C22.2393 239.735 22.8595 239.477 23.4109 239.104C23.9622 238.732 24.4337 238.253 24.7976 237.696C25.1615 237.139 25.4105 236.514 25.5301 235.86Z" fill="black"/>
<path d="M168.12 308.79C168.297 307.821 168.184 306.822 167.796 305.918C167.407 305.013 166.76 304.243 165.936 303.705C165.112 303.167 164.147 302.884 163.163 302.891C162.178 302.899 161.218 303.197 160.402 303.748C159.586 304.299 158.952 305.079 158.577 305.989C158.203 306.9 158.105 307.901 158.297 308.866C158.489 309.832 158.962 310.719 159.656 311.417C160.351 312.115 161.235 312.593 162.2 312.79C162.852 312.923 163.524 312.925 164.177 312.795C164.829 312.665 165.449 312.407 166.001 312.034C166.552 311.662 167.024 311.183 167.387 310.626C167.751 310.069 168 309.444 168.12 308.79Z" fill="black"/>
<path d="M146.69 342.32C146.867 341.351 146.754 340.352 146.366 339.448C145.977 338.543 145.33 337.774 144.506 337.235C143.682 336.697 142.717 336.414 141.733 336.421C140.748 336.429 139.788 336.727 138.972 337.278C138.156 337.829 137.522 338.609 137.147 339.519C136.773 340.43 136.676 341.431 136.867 342.396C137.059 343.362 137.532 344.249 138.226 344.947C138.921 345.645 139.806 346.123 140.77 346.32C142.085 346.572 143.447 346.293 144.557 345.543C145.666 344.793 146.434 343.634 146.69 342.32Z" fill="black"/>
<path d="M127.48 363.67C127.657 362.702 127.544 361.702 127.156 360.798C126.767 359.893 126.12 359.124 125.296 358.585C124.472 358.047 123.507 357.764 122.523 357.771C121.538 357.779 120.578 358.077 119.762 358.628C118.947 359.179 118.312 359.959 117.937 360.87C117.563 361.78 117.466 362.781 117.658 363.746C117.85 364.712 118.322 365.599 119.017 366.297C119.711 366.995 120.596 367.473 121.56 367.67C122.212 367.803 122.884 367.805 123.537 367.675C124.189 367.545 124.809 367.287 125.361 366.914C125.912 366.542 126.384 366.063 126.748 365.506C127.111 364.949 127.361 364.325 127.48 363.67Z" fill="black"/>
<path d="M146 397.16C146.177 396.191 146.064 395.192 145.676 394.288C145.287 393.383 144.64 392.614 143.816 392.075C142.992 391.537 142.027 391.254 141.043 391.261C140.058 391.269 139.098 391.567 138.282 392.118C137.467 392.669 136.832 393.449 136.457 394.36C136.083 395.27 135.986 396.271 136.178 397.236C136.37 398.202 136.842 399.089 137.537 399.787C138.231 400.485 139.116 400.963 140.08 401.16C140.732 401.293 141.404 401.295 142.057 401.165C142.709 401.035 143.329 400.777 143.881 400.404C144.432 400.032 144.904 399.553 145.268 398.996C145.631 398.439 145.881 397.814 146 397.16Z" fill="black"/>
<path d="M140.58 436.11C140.758 435.141 140.645 434.141 140.256 433.236C139.868 432.331 139.22 431.561 138.396 431.023C137.571 430.484 136.605 430.201 135.621 430.209C134.636 430.218 133.675 430.516 132.859 431.068C132.044 431.621 131.409 432.401 131.036 433.313C130.662 434.224 130.566 435.225 130.759 436.191C130.953 437.157 131.427 438.044 132.123 438.741C132.819 439.438 133.705 439.914 134.67 440.11C135.321 440.242 135.992 440.242 136.644 440.112C137.295 439.981 137.914 439.722 138.464 439.35C139.015 438.978 139.485 438.499 139.848 437.943C140.212 437.387 140.46 436.763 140.58 436.11Z" fill="black"/>
<path d="M216.07 358.63C216.247 357.661 216.135 356.661 215.746 355.756C215.358 354.851 214.71 354.081 213.886 353.543C213.061 353.004 212.095 352.721 211.111 352.729C210.126 352.738 209.165 353.036 208.349 353.588C207.534 354.141 206.899 354.921 206.526 355.833C206.152 356.744 206.056 357.745 206.249 358.711C206.443 359.677 206.917 360.564 207.613 361.261C208.309 361.958 209.195 362.435 210.16 362.63C210.811 362.762 211.482 362.762 212.134 362.632C212.785 362.501 213.404 362.242 213.954 361.87C214.505 361.498 214.975 361.019 215.338 360.463C215.702 359.907 215.95 359.283 216.07 358.63Z" fill="black"/>
<path d="M174.561 397.541C175.58 394.95 174.307 392.024 171.717 391.005C169.127 389.986 166.2 391.259 165.181 393.85C164.162 396.44 165.435 399.366 168.026 400.385C170.616 401.404 173.542 400.131 174.561 397.541Z" fill="black"/>
<path d="M213.57 417C213.747 416.031 213.635 415.031 213.246 414.126C212.858 413.221 212.21 412.451 211.386 411.913C210.561 411.374 209.595 411.091 208.611 411.099C207.626 411.107 206.665 411.406 205.849 411.958C205.034 412.51 204.399 413.291 204.026 414.202C203.652 415.114 203.556 416.115 203.749 417.081C203.943 418.047 204.417 418.934 205.113 419.631C205.809 420.328 206.695 420.804 207.66 421C208.311 421.132 208.982 421.132 209.634 421.002C210.285 420.871 210.904 420.612 211.454 420.24C212.005 419.867 212.475 419.389 212.838 418.833C213.202 418.276 213.45 417.653 213.57 417Z" fill="black"/>
<path d="M232.33 341.7C232.507 340.732 232.394 339.732 232.006 338.828C231.617 337.923 230.97 337.154 230.146 336.615C229.322 336.077 228.357 335.794 227.373 335.801C226.388 335.809 225.428 336.107 224.612 336.658C223.797 337.209 223.162 337.989 222.787 338.9C222.413 339.81 222.316 340.811 222.508 341.776C222.7 342.742 223.172 343.629 223.867 344.327C224.561 345.025 225.446 345.503 226.41 345.7C227.062 345.826 227.731 345.823 228.382 345.69C229.032 345.558 229.649 345.298 230.199 344.927C230.749 344.555 231.22 344.079 231.586 343.525C231.951 342.972 232.204 342.351 232.33 341.7Z" fill="black"/>
<path d="M176.84 326.2C177.017 325.232 176.904 324.232 176.515 323.328C176.127 322.423 175.48 321.654 174.656 321.115C173.832 320.577 172.867 320.294 171.882 320.301C170.898 320.309 169.938 320.607 169.122 321.158C168.306 321.709 167.672 322.489 167.297 323.4C166.923 324.31 166.825 325.311 167.017 326.276C167.209 327.242 167.682 328.129 168.376 328.827C169.071 329.525 169.955 330.003 170.92 330.2C171.572 330.333 172.244 330.335 172.897 330.205C173.549 330.075 174.169 329.817 174.721 329.444C175.272 329.072 175.743 328.593 176.107 328.036C176.471 327.479 176.72 326.855 176.84 326.2Z" fill="black"/>
<path d="M207.6 156.64C207.777 155.671 207.664 154.672 207.276 153.768C206.887 152.863 206.24 152.094 205.416 151.555C204.592 151.017 203.627 150.734 202.643 150.741C201.658 150.749 200.698 151.047 199.882 151.598C199.067 152.149 198.432 152.929 198.057 153.84C197.683 154.75 197.586 155.751 197.778 156.716C197.97 157.682 198.442 158.569 199.137 159.267C199.831 159.965 200.716 160.443 201.68 160.64C202.332 160.773 203.004 160.775 203.657 160.645C204.309 160.515 204.93 160.257 205.481 159.884C206.032 159.512 206.504 159.033 206.868 158.476C207.232 157.919 207.481 157.294 207.6 156.64Z" fill="black"/>
<path d="M356.74 242.94C356.917 241.971 356.805 240.971 356.416 240.066C356.027 239.161 355.38 238.391 354.555 237.853C353.731 237.314 352.765 237.031 351.78 237.039C350.796 237.048 349.835 237.346 349.019 237.899C348.204 238.451 347.569 239.231 347.195 240.143C346.822 241.054 346.726 242.055 346.919 243.021C347.113 243.987 347.587 244.874 348.283 245.571C348.978 246.268 349.865 246.745 350.83 246.94C352.144 247.192 353.504 246.913 354.613 246.163C355.721 245.413 356.486 244.254 356.74 242.94Z" fill="black"/>
<path d="M210.478 265.554C212.796 264.014 213.428 260.886 211.888 258.567C210.348 256.248 207.22 255.617 204.901 257.157C202.582 258.697 201.951 261.825 203.491 264.144C205.031 266.462 208.159 267.094 210.478 265.554Z" fill="black"/>
<path d="M299.41 448.34C299.587 447.371 299.474 446.372 299.086 445.468C298.697 444.563 298.05 443.794 297.226 443.255C296.402 442.717 295.437 442.434 294.453 442.441C293.468 442.449 292.508 442.747 291.692 443.298C290.876 443.849 290.242 444.629 289.867 445.54C289.493 446.45 289.395 447.451 289.587 448.416C289.779 449.382 290.252 450.269 290.946 450.967C291.641 451.665 292.526 452.143 293.49 452.34C294.141 452.466 294.811 452.463 295.461 452.33C296.112 452.198 296.729 451.938 297.279 451.567C297.829 451.195 298.3 450.719 298.666 450.165C299.031 449.612 299.284 448.991 299.41 448.34Z" fill="black"/>
<path d="M331.06 500.64C331.237 499.672 331.124 498.672 330.736 497.768C330.347 496.863 329.7 496.094 328.876 495.555C328.052 495.017 327.087 494.734 326.103 494.741C325.118 494.749 324.158 495.047 323.342 495.598C322.527 496.149 321.892 496.929 321.517 497.84C321.143 498.75 321.046 499.751 321.238 500.716C321.43 501.682 321.902 502.569 322.597 503.267C323.291 503.965 324.176 504.443 325.14 504.64C325.792 504.773 326.464 504.775 327.117 504.645C327.769 504.515 328.39 504.257 328.941 503.884C329.492 503.512 329.964 503.033 330.328 502.476C330.692 501.919 330.941 501.295 331.06 500.64Z" fill="black"/>
<path d="M370.37 409C370.34 408.015 370.021 407.061 369.451 406.258C368.881 405.455 368.087 404.837 367.168 404.484C366.248 404.13 365.245 404.056 364.284 404.27C363.322 404.485 362.446 404.978 361.764 405.689C361.082 406.4 360.625 407.296 360.451 408.266C360.277 409.235 360.393 410.234 360.784 411.138C361.176 412.042 361.826 412.81 362.652 413.346C363.479 413.881 364.445 414.161 365.43 414.15C366.094 414.142 366.751 414.002 367.36 413.738C367.97 413.474 368.521 413.091 368.981 412.611C369.441 412.132 369.8 411.566 370.039 410.945C370.277 410.325 370.39 409.664 370.37 409Z" fill="black"/>
<path d="M483.61 388.36C483.58 387.375 483.26 386.421 482.69 385.617C482.12 384.813 481.325 384.196 480.405 383.843C479.485 383.489 478.482 383.416 477.52 383.631C476.558 383.846 475.682 384.341 475 385.053C474.319 385.765 473.863 386.662 473.69 387.632C473.517 388.602 473.634 389.602 474.027 390.505C474.421 391.409 475.072 392.176 475.9 392.71C476.727 393.245 477.695 393.523 478.68 393.51C479.344 393.501 479.999 393.36 480.607 393.095C481.216 392.83 481.765 392.447 482.224 391.968C482.683 391.488 483.042 390.923 483.28 390.303C483.518 389.684 483.63 389.023 483.61 388.36Z" fill="black"/>
<path d="M448.83 426.56C448.8 425.575 448.48 424.621 447.91 423.817C447.34 423.014 446.545 422.396 445.625 422.043C444.705 421.69 443.702 421.616 442.74 421.831C441.778 422.047 440.902 422.541 440.22 423.253C439.539 423.965 439.083 424.862 438.91 425.832C438.737 426.802 438.854 427.802 439.247 428.705C439.641 429.609 440.292 430.376 441.12 430.911C441.947 431.445 442.915 431.723 443.9 431.71C444.564 431.701 445.219 431.56 445.827 431.295C446.436 431.031 446.985 430.647 447.444 430.168C447.903 429.689 448.262 429.123 448.5 428.503C448.738 427.884 448.85 427.223 448.83 426.56Z" fill="black"/>
<path d="M455.36 306.255C457.286 304.246 457.218 301.055 455.208 299.129C453.198 297.203 450.008 297.271 448.082 299.281C446.156 301.291 446.224 304.481 448.234 306.407C450.243 308.333 453.434 308.265 455.36 306.255Z" fill="black"/>
<path d="M381.08 380.63C381.05 379.645 380.731 378.692 380.161 377.888C379.591 377.085 378.797 376.467 377.878 376.114C376.958 375.76 375.955 375.686 374.994 375.9C374.032 376.115 373.156 376.608 372.474 377.319C371.792 378.03 371.335 378.926 371.161 379.896C370.987 380.865 371.103 381.864 371.494 382.768C371.886 383.672 372.536 384.44 373.362 384.976C374.189 385.512 375.155 385.791 376.14 385.78C376.804 385.772 377.461 385.632 378.07 385.368C378.68 385.104 379.231 384.721 379.691 384.241C380.151 383.762 380.51 383.196 380.749 382.576C380.987 381.955 381.1 381.294 381.08 380.63Z" fill="black"/>
<path d="M306.61 309.82C306.787 308.851 306.674 307.852 306.285 306.948C305.897 306.043 305.25 305.274 304.426 304.735C303.602 304.197 302.637 303.914 301.653 303.921C300.668 303.929 299.708 304.227 298.892 304.778C298.076 305.329 297.442 306.109 297.067 307.019C296.693 307.93 296.595 308.931 296.787 309.896C296.979 310.862 297.452 311.749 298.146 312.447C298.841 313.145 299.725 313.623 300.69 313.82C301.342 313.953 302.014 313.955 302.667 313.825C303.319 313.695 303.939 313.437 304.491 313.064C305.042 312.692 305.514 312.213 305.877 311.656C306.241 311.099 306.49 310.474 306.61 309.82Z" fill="black"/>
<path d="M362.59 309C362.767 308.032 362.654 307.032 362.265 306.128C361.877 305.223 361.23 304.454 360.406 303.915C359.582 303.377 358.617 303.094 357.632 303.101C356.648 303.109 355.688 303.407 354.872 303.958C354.056 304.51 353.422 305.289 353.047 306.2C352.673 307.11 352.575 308.111 352.767 309.076C352.959 310.042 353.432 310.929 354.126 311.627C354.821 312.325 355.705 312.803 356.67 313C357.322 313.133 357.994 313.135 358.647 313.005C359.299 312.876 359.919 312.617 360.471 312.244C361.022 311.872 361.493 311.393 361.857 310.836C362.221 310.279 362.47 309.655 362.59 309Z" fill="black"/>
<path d="M362.59 259.35C362.767 258.381 362.654 257.382 362.265 256.478C361.877 255.573 361.23 254.804 360.406 254.265C359.582 253.727 358.617 253.444 357.632 253.451C356.648 253.459 355.688 253.757 354.872 254.308C354.056 254.859 353.422 255.639 353.047 256.55C352.673 257.46 352.575 258.461 352.767 259.426C352.959 260.392 353.432 261.279 354.126 261.977C354.821 262.675 355.705 263.153 356.67 263.35C357.985 263.602 359.347 263.323 360.457 262.573C361.566 261.823 362.333 260.664 362.59 259.35Z" fill="black"/>
<path d="M380.73 278.8C380.907 277.831 380.794 276.832 380.406 275.928C380.017 275.023 379.37 274.254 378.546 273.715C377.722 273.177 376.757 272.894 375.773 272.901C374.788 272.909 373.828 273.207 373.012 273.758C372.197 274.309 371.562 275.089 371.187 275.999C370.813 276.91 370.716 277.911 370.908 278.876C371.1 279.842 371.572 280.729 372.267 281.427C372.961 282.125 373.846 282.603 374.81 282.8C375.461 282.926 376.131 282.923 376.781 282.79C377.432 282.658 378.049 282.398 378.599 282.027C379.149 281.655 379.62 281.179 379.986 280.625C380.351 280.072 380.604 279.451 380.73 278.8Z" fill="black"/>
<path d="M246.136 153.04C248.192 149.305 246.832 144.61 243.097 142.553C239.362 140.497 234.667 141.857 232.611 145.592C230.554 149.327 231.914 154.022 235.649 156.078C239.384 158.135 244.079 156.775 246.136 153.04Z" fill="black"/>
<path d="M210.23 239.22C210.522 237.722 210.363 236.17 209.774 234.762C209.184 233.354 208.19 232.152 206.918 231.309C205.645 230.465 204.151 230.018 202.625 230.024C201.098 230.029 199.607 230.487 198.341 231.34C197.075 232.192 196.09 233.401 195.51 234.814C194.931 236.226 194.783 237.779 195.086 239.275C195.389 240.771 196.128 242.144 197.211 243.22C198.294 244.296 199.672 245.027 201.17 245.32C203.18 245.708 205.262 245.284 206.96 244.141C208.658 242.997 209.834 241.228 210.23 239.22Z" fill="black"/>
<path d="M149.14 270.28C153.404 270.28 156.86 266.823 156.86 262.56C156.86 258.296 153.404 254.84 149.14 254.84C144.877 254.84 141.42 258.296 141.42 262.56C141.42 266.823 144.877 270.28 149.14 270.28Z" fill="black"/>
<path d="M223.1 297.62C227.364 297.62 230.82 294.164 230.82 289.9C230.82 285.636 227.364 282.18 223.1 282.18C218.836 282.18 215.38 285.636 215.38 289.9C215.38 294.164 218.836 297.62 223.1 297.62Z" fill="black"/>
<path d="M283.569 306.736C285.174 302.786 283.274 298.283 279.324 296.677C275.374 295.072 270.871 296.972 269.265 300.922C267.66 304.872 269.56 309.375 273.51 310.981C277.46 312.586 281.963 310.686 283.569 306.736Z" fill="black"/>
<path d="M253.12 347.67C257.384 347.67 260.84 344.214 260.84 339.95C260.84 335.686 257.384 332.23 253.12 332.23C248.857 332.23 245.4 335.686 245.4 339.95C245.4 344.214 248.857 347.67 253.12 347.67Z" fill="black"/>
<path d="M188.12 320.59C192.384 320.59 195.84 317.134 195.84 312.87C195.84 308.606 192.384 305.15 188.12 305.15C183.857 305.15 180.4 308.606 180.4 312.87C180.4 317.134 183.857 320.59 188.12 320.59Z" fill="black"/>
<path d="M41.0201 387.72C45.2837 387.72 48.7401 384.263 48.7401 380C48.7401 375.736 45.2837 372.28 41.0201 372.28C36.7564 372.28 33.3 375.736 33.3 380C33.3 384.263 36.7564 387.72 41.0201 387.72Z" fill="black"/>
<path d="M44.1516 422.875C47.9318 420.903 49.3976 416.24 47.4255 412.46C45.4535 408.68 40.7904 407.214 37.0103 409.186C33.2301 411.158 31.7643 415.821 33.7363 419.601C35.7084 423.381 40.3714 424.847 44.1516 422.875Z" fill="black"/>
<path d="M185.2 382.66C189.464 382.66 192.92 379.204 192.92 374.94C192.92 370.676 189.464 367.22 185.2 367.22C180.936 367.22 177.48 370.676 177.48 374.94C177.48 379.204 180.936 382.66 185.2 382.66Z" fill="black"/>
<path d="M241.457 388.523C245.384 386.864 247.223 382.335 245.564 378.408C243.905 374.48 239.376 372.641 235.449 374.3C231.521 375.959 229.682 380.488 231.341 384.416C233 388.343 237.529 390.182 241.457 388.523Z" fill="black"/>
<path d="M239.433 458.043C243.36 456.384 245.199 451.855 243.54 447.928C241.881 444 237.352 442.161 233.425 443.82C229.497 445.479 227.658 450.008 229.317 453.936C230.976 457.863 235.505 459.702 239.433 458.043Z" fill="black"/>
<path d="M190.15 478.81C190.443 477.311 190.284 475.759 189.694 474.35C189.104 472.942 188.11 471.74 186.837 470.896C185.564 470.053 184.07 469.606 182.543 469.612C181.015 469.618 179.524 470.076 178.258 470.93C176.992 471.784 176.007 472.993 175.429 474.407C174.85 475.82 174.704 477.373 175.008 478.87C175.312 480.366 176.053 481.739 177.138 482.814C178.222 483.889 179.601 484.618 181.1 484.91C183.109 485.3 185.191 484.877 186.888 483.733C188.585 482.589 189.758 480.818 190.15 478.81Z" fill="black"/>
<path d="M339.87 412.47C340.162 410.971 340.003 409.42 339.413 408.012C338.824 406.604 337.83 405.402 336.558 404.559C335.285 403.715 333.791 403.268 332.265 403.273C330.738 403.279 329.247 403.737 327.981 404.59C326.715 405.442 325.729 406.651 325.15 408.064C324.571 409.476 324.423 411.028 324.726 412.525C325.029 414.021 325.768 415.394 326.851 416.47C327.934 417.546 329.312 418.277 330.81 418.57C331.805 418.765 332.83 418.761 333.824 418.56C334.818 418.359 335.763 417.964 336.604 417.397C337.445 416.831 338.167 416.104 338.727 415.258C339.288 414.413 339.676 413.465 339.87 412.47Z" fill="black"/>
<path d="M331.22 389.94C331.51 388.441 331.349 386.891 330.758 385.483C330.167 384.076 329.172 382.876 327.899 382.034C326.626 381.192 325.132 380.746 323.606 380.753C322.08 380.76 320.59 381.219 319.324 382.073C318.059 382.926 317.075 384.135 316.496 385.548C315.918 386.96 315.771 388.512 316.075 390.008C316.378 391.504 317.118 392.876 318.201 393.952C319.285 395.027 320.662 395.757 322.16 396.05C323.156 396.245 324.181 396.241 325.176 396.039C326.17 395.837 327.116 395.441 327.957 394.874C328.799 394.306 329.52 393.578 330.08 392.732C330.64 391.885 331.027 390.936 331.22 389.94Z" fill="black"/>
<path d="M270.51 371.77C274.774 371.77 278.23 368.313 278.23 364.05C278.23 359.786 274.774 356.33 270.51 356.33C266.246 356.33 262.79 359.786 262.79 364.05C262.79 368.313 266.246 371.77 270.51 371.77Z" fill="black"/>
<path d="M368 364.76C367.966 363.234 367.481 361.752 366.605 360.502C365.729 359.252 364.503 358.29 363.08 357.736C361.658 357.183 360.103 357.064 358.613 357.394C357.123 357.724 355.764 358.488 354.708 359.59C353.652 360.692 352.946 362.083 352.68 363.586C352.414 365.089 352.6 366.637 353.213 368.034C353.826 369.432 354.84 370.616 356.127 371.438C357.413 372.259 358.914 372.681 360.44 372.65C361.455 372.629 362.456 372.408 363.385 372C364.314 371.593 365.154 371.005 365.856 370.272C366.558 369.54 367.109 368.676 367.477 367.73C367.845 366.784 368.023 365.775 368 364.76Z" fill="black"/>
<path d="M383.26 488.2C387.524 488.2 390.98 484.743 390.98 480.48C390.98 476.216 387.524 472.76 383.26 472.76C378.996 472.76 375.54 476.216 375.54 480.48C375.54 484.743 378.996 488.2 383.26 488.2Z" fill="black"/>
<path d="M348.71 453.9C349.004 452.399 348.847 450.845 348.258 449.433C347.668 448.022 346.674 446.817 345.399 445.971C344.125 445.126 342.628 444.677 341.099 444.682C339.57 444.687 338.076 445.146 336.807 446C335.539 446.854 334.552 448.065 333.972 449.481C333.392 450.896 333.245 452.451 333.549 453.95C333.853 455.449 334.596 456.824 335.682 457.901C336.768 458.978 338.149 459.708 339.65 460C341.66 460.391 343.743 459.968 345.442 458.824C347.14 457.68 348.316 455.909 348.71 453.9Z" fill="black"/>
<path d="M307.59 474.23C307.884 472.729 307.727 471.174 307.138 469.763C306.548 468.352 305.554 467.147 304.279 466.301C303.005 465.455 301.509 465.007 299.979 465.012C298.45 465.017 296.956 465.475 295.687 466.33C294.419 467.184 293.432 468.395 292.852 469.81C292.272 471.226 292.125 472.781 292.429 474.28C292.734 475.779 293.476 477.154 294.562 478.231C295.648 479.307 297.029 480.038 298.53 480.33C300.54 480.72 302.623 480.297 304.322 479.154C306.02 478.01 307.196 476.239 307.59 474.23Z" fill="black"/>
<path d="M409.69 426.5C409.656 424.974 409.17 423.492 408.294 422.241C407.418 420.991 406.191 420.029 404.768 419.476C403.345 418.923 401.79 418.804 400.299 419.135C398.809 419.466 397.45 420.231 396.394 421.334C395.339 422.437 394.634 423.829 394.369 425.332C394.104 426.836 394.291 428.384 394.906 429.781C395.521 431.179 396.536 432.362 397.824 433.183C399.112 434.003 400.614 434.423 402.14 434.39C404.187 434.343 406.131 433.485 407.547 432.006C408.962 430.527 409.733 428.547 409.69 426.5Z" fill="black"/>
<path d="M413.44 358.67C413.408 357.144 412.924 355.661 412.05 354.409C411.175 353.158 409.949 352.194 408.527 351.639C407.104 351.084 405.55 350.964 404.059 351.293C402.568 351.622 401.208 352.385 400.151 353.487C399.094 354.589 398.387 355.979 398.121 357.482C397.854 358.986 398.039 360.534 398.652 361.932C399.265 363.33 400.279 364.515 401.566 365.337C402.852 366.159 404.354 366.581 405.88 366.55C406.894 366.529 407.894 366.309 408.822 365.902C409.751 365.494 410.59 364.908 411.293 364.176C411.995 363.444 412.546 362.581 412.914 361.637C413.283 360.692 413.461 359.684 413.44 358.67Z" fill="black"/>
<path d="M438.907 336.718C441.857 333.64 441.753 328.753 438.674 325.803C435.596 322.853 430.709 322.957 427.759 326.035C424.809 329.114 424.913 334.001 427.992 336.951C431.07 339.901 435.957 339.796 438.907 336.718Z" fill="black"/>
<path d="M433.115 402.97C436.854 400.921 438.224 396.229 436.176 392.49C434.127 388.75 429.435 387.38 425.696 389.429C421.956 391.478 420.586 396.17 422.635 399.909C424.684 403.648 429.376 405.018 433.115 402.97Z" fill="black"/>
<path d="M181.26 225.22C181.7 222.97 181.464 220.64 180.579 218.524C179.695 216.409 178.204 214.603 176.293 213.336C174.383 212.068 172.139 211.396 169.846 211.404C167.554 211.412 165.315 212.099 163.413 213.38C161.511 214.66 160.032 216.476 159.162 218.597C158.292 220.719 158.071 223.051 158.527 225.298C158.983 227.545 160.095 229.606 161.722 231.221C163.35 232.836 165.42 233.932 167.67 234.37C170.685 234.957 173.811 234.323 176.359 232.608C178.907 230.892 180.67 228.235 181.26 225.22Z" fill="black"/>
</g>
</g>
<path d="M921.395 178.739L1058.89 100.589L972.391 250.411L921.395 178.739Z" stroke="#F0F0F0"/>
<path d="M1449 171L1341 2L1469 68L1449 171Z" stroke="#F0F0F0"/>
<path d="M1296.64 550.142L1253.51 746.011L1209.67 608.832L1296.64 550.142Z" stroke="#F0F0F0"/>
<path d="M1303.52 135.266L1340.89 64L1343.39 121.445L1303.52 135.266Z" fill="#D83933"/>
<path d="M1195 557.188L1035 499L1114.21 609L1195 557.188Z" fill="#F9EEEE"/>
<defs>
<clipPath id="clip0">
<rect width="555.03" height="478.42" fill="white" transform="translate(0 74)"/>
</clipPath>
</defs>
</svg>
