<svg width="92" height="64" viewBox="0 0 92 64" fill="none" xmlns="http://www.w3.org/2000/svg">
<path d="M20.0867 26.7847H20.2091C21.4916 26.7847 22.6574 27.2367 23.7067 28.1407C23.8337 28.2272 23.9392 28.3412 24.0149 28.4742C24.0907 28.6072 24.1348 28.7555 24.1439 28.9079C24.1442 29.0507 24.1049 29.1908 24.0303 29.313C23.9556 29.4351 23.8485 29.5346 23.7207 29.6006C23.6138 29.6603 23.4936 29.6925 23.3709 29.6941H23.329C23.1891 29.6869 23.0526 29.6486 22.9297 29.582C22.8068 29.5155 22.7006 29.4224 22.619 29.3097C21.9587 28.7262 21.108 28.3984 20.2231 28.3866H20.0727C19.1849 28.3962 18.3318 28.7298 17.6769 29.3235C17.4292 29.5446 17.2096 29.7946 17.0229 30.0682C16.6543 30.6413 16.4534 31.3043 16.4423 31.9836V32.1256C16.448 32.8741 16.6929 33.6016 17.1418 34.2038C17.1418 34.2038 17.1418 34.2038 17.1418 34.2177C17.078 34.2041 17.0129 34.1971 16.9477 34.1969C16.6864 34.1997 16.4362 34.3014 16.2483 34.4811C16.0603 34.6608 15.9489 34.9048 15.9369 35.1633V35.262C15.2277 34.3605 14.8414 33.2511 14.8386 32.1083V31.9871C14.8451 30.7919 15.2682 29.6356 16.0365 28.7139C16.2728 28.4305 16.537 28.1712 16.8252 27.9398C17.7474 27.1974 18.8983 26.7898 20.0867 26.7847ZM16.9092 34.4203H17.0159C17.231 34.4203 17.4618 34.5519 17.7049 34.8169C18.3743 35.3965 19.2325 35.7175 20.1217 35.7209H20.2004C21.1564 35.7209 22.022 35.3555 22.7973 34.6247C22.9432 34.4898 23.1364 34.4165 23.336 34.4203C23.7032 34.4203 23.9638 34.6172 24.1177 35.0109C24.1291 35.068 24.1361 35.1259 24.1386 35.184V35.2481C24.1386 35.5044 23.9952 35.7434 23.7084 35.9651C22.761 36.8111 21.5385 37.2923 20.2632 37.3213C18.9878 37.3502 17.7443 36.9249 16.7588 36.1227C16.3898 35.8231 16.1922 35.591 16.1625 35.43C16.149 35.3545 16.142 35.278 16.1415 35.2014C16.1415 35.0663 16.1774 34.9336 16.2455 34.8165C16.3137 34.6995 16.4117 34.6023 16.5297 34.5346C16.6424 34.461 16.7742 34.4213 16.9092 34.4203Z" fill="#1D1D1B"/>
<path d="M26.8722 27.5379V36.5746C26.8697 36.7234 26.8233 36.8683 26.7388 36.9914C26.6543 37.1144 26.5353 37.2104 26.3965 37.2674C26.2956 37.3154 26.1849 37.3397 26.073 37.3384H26.0642C25.8938 37.3403 25.7272 37.2883 25.5888 37.1898C25.4504 37.0914 25.3474 36.9517 25.2948 36.7911C25.2719 36.7199 25.2595 36.6459 25.2581 36.5712V27.5449C25.2611 27.3971 25.3068 27.2533 25.3899 27.1305C25.473 27.0077 25.5899 26.9111 25.7267 26.8521C25.8236 26.8069 25.9292 26.7827 26.0363 26.7811H26.0975C26.2448 26.7826 26.3887 26.8253 26.5125 26.9044C26.6362 26.9835 26.7349 27.0956 26.797 27.2279C26.8468 27.3238 26.8726 27.4301 26.8722 27.5379ZM32.9929 27.5379V27.602C32.9929 27.9276 32.8058 28.1753 32.4333 28.3398C32.3232 28.3646 32.2105 28.3768 32.0975 28.3761H27.1135C27.1107 28.3764 27.1078 28.3761 27.1052 28.3751C27.1025 28.3742 27.1001 28.3726 27.0981 28.3707C27.0961 28.3687 27.0945 28.3663 27.0936 28.3636C27.0926 28.361 27.0923 28.3582 27.0925 28.3554V27.5691C27.0908 27.4184 27.0559 27.2698 26.9904 27.1337C26.9249 26.9977 26.8302 26.8773 26.713 26.7811H32.2182C32.5435 26.7811 32.7883 26.9543 32.9562 27.3215C32.9774 27.3942 32.9891 27.4692 32.9912 27.5449L32.9929 27.5379ZM32.9929 28.2047V36.5452C32.9904 36.702 32.9408 36.8546 32.8505 36.9835C32.7602 37.1124 32.6332 37.2118 32.4858 37.2691C32.3956 37.2998 32.3013 37.3167 32.206 37.3193H32.185C31.8352 37.3193 31.5712 37.1288 31.4138 36.7513C31.3878 36.6465 31.376 36.5388 31.3788 36.4309V28.6082C31.3785 28.6054 31.3789 28.6026 31.3798 28.6C31.3808 28.5973 31.3823 28.5949 31.3843 28.5929C31.3864 28.5909 31.3888 28.5894 31.3914 28.5885C31.3941 28.5875 31.397 28.5872 31.3998 28.5874H32.206C32.3558 28.5855 32.5033 28.5506 32.6379 28.4853C32.7725 28.42 32.8908 28.3259 32.9842 28.2099L32.9929 28.2047Z" fill="#1D1D1B"/>
<path d="M34.8659 26.7847H34.9306C35.2593 26.7847 35.5059 26.97 35.6738 27.3389C35.6975 27.4487 35.7092 27.5608 35.7088 27.6731V35.494C35.709 35.4968 35.7087 35.4997 35.7077 35.5023C35.7068 35.5049 35.7052 35.5073 35.7032 35.5093C35.7012 35.5113 35.6988 35.5128 35.6961 35.5138C35.6935 35.5147 35.6906 35.5151 35.6878 35.5148H34.8938C34.7422 35.5171 34.5929 35.5518 34.4561 35.6167C34.3194 35.6816 34.1984 35.775 34.1016 35.8906V27.5519C34.1016 27.2297 34.2765 26.9856 34.6438 26.821C34.716 26.7999 34.7906 26.7877 34.8659 26.7847ZM34.8659 35.7348H41.0635C41.2137 35.7369 41.3599 35.7824 41.4842 35.8658C41.6085 35.9492 41.7054 36.0668 41.7631 36.2041C41.8118 36.3033 41.8363 36.4124 41.8348 36.5227C41.8366 36.6913 41.784 36.856 41.6846 36.9928C41.5851 37.1296 41.4441 37.2313 41.2821 37.283C41.2103 37.3057 41.1355 37.3179 41.06 37.3194H34.8694C34.7205 37.3159 34.5757 37.2706 34.4518 37.1888C34.328 37.1069 34.2302 36.9918 34.1698 36.857C34.1244 36.7616 34.0999 36.6577 34.0981 36.5522V36.4881C34.1011 36.3437 34.1452 36.203 34.2253 36.0823C34.3055 35.9616 34.4184 35.8657 34.5511 35.8058C34.6475 35.7575 34.7543 35.7331 34.8624 35.7348H34.8659ZM35.5479 26.7847H41.0496C41.3643 26.7847 41.608 26.9527 41.7805 27.2886C41.8135 27.3788 41.8324 27.4734 41.8365 27.5692V27.5917C41.8365 27.9381 41.6441 28.2013 41.2629 28.3572C41.1572 28.3836 41.0484 28.3959 40.9394 28.3935H35.9449C35.942 28.3938 35.9392 28.3935 35.9365 28.3925C35.9339 28.3916 35.9314 28.39 35.9294 28.388C35.9274 28.3861 35.9259 28.3837 35.9249 28.381C35.924 28.3784 35.9236 28.3756 35.9239 28.3728V27.5692C35.9221 27.4204 35.8872 27.2739 35.8216 27.1401C35.756 27.0063 35.6613 26.8884 35.5444 26.7951L35.5479 26.7847ZM35.9484 31.2528H41.0198C41.4116 31.2528 41.6791 31.4589 41.8225 31.8711C41.8318 31.9318 41.837 31.9932 41.8383 32.0546C41.8383 32.4391 41.6302 32.6989 41.2139 32.8374C41.1524 32.8502 41.0897 32.8571 41.0268 32.8582H35.9554C35.9525 32.8585 35.9497 32.8581 35.947 32.8572C35.9443 32.8562 35.9419 32.8547 35.9399 32.8527C35.9379 32.8507 35.9364 32.8483 35.9354 32.8457C35.9345 32.843 35.9341 32.8402 35.9344 32.8374V31.2788C35.9332 31.2764 35.9326 31.2738 35.9325 31.2712C35.9324 31.2686 35.9329 31.2659 35.9339 31.2635C35.9349 31.2611 35.9363 31.2589 35.9382 31.257C35.9401 31.2552 35.9424 31.2537 35.9449 31.2528H35.9484Z" fill="#1D1D1B"/>
<path d="M48.2893 26.7847H48.354C48.5016 26.7849 48.646 26.8271 48.77 26.9063C48.8941 26.9855 48.9925 27.0984 49.0535 27.2315C49.1051 27.3281 49.1321 27.4357 49.1322 27.5449V27.6229C49.1322 27.8688 48.9818 28.1153 48.681 28.3624L44.5487 32.4668V36.5591C44.5487 36.8708 44.3738 37.1098 44.024 37.2761C43.9246 37.3107 43.8198 37.3277 43.7145 37.3263C43.3857 37.3263 43.1374 37.1531 42.9695 36.8068C42.9406 36.7249 42.9258 36.6389 42.9258 36.5522V32.1187C42.9345 31.9745 42.9765 31.8342 43.0487 31.7087C43.1209 31.5832 43.2212 31.4758 43.342 31.3948C46.3301 28.4241 47.8317 26.9394 47.8469 26.9405C47.9733 26.8424 48.1286 26.7877 48.2893 26.7847ZM43.7057 26.7847H43.7704C44.0771 26.7847 44.3161 26.9503 44.4874 27.2817C44.5199 27.3589 44.5394 27.4408 44.5452 27.5242V29.8881L42.938 31.4866V27.5519C42.9411 27.4043 42.9867 27.2607 43.0694 27.138C43.1521 27.0153 43.2685 26.9185 43.4049 26.8591C43.4989 26.8138 43.6013 26.7885 43.7057 26.7847ZM45.1048 32.2763C45.1765 32.2763 45.2884 32.3629 45.4423 32.5378C47.7891 34.8538 48.9748 36.0309 48.9993 36.069C49.0747 36.1861 49.1192 36.3201 49.1287 36.4587V36.5747C49.1287 36.8784 48.9591 37.115 48.6198 37.2848C48.5208 37.3184 48.4167 37.3354 48.312 37.335C48.0392 37.335 47.7711 37.1739 47.5076 36.8518C45.7588 35.1315 44.8693 34.2483 44.839 34.2021C44.7915 34.1328 44.7643 34.0519 44.7603 33.9683V32.7248C44.7681 32.6357 44.7985 32.55 44.8487 32.4755C44.8988 32.4011 44.967 32.3403 45.0471 32.2988L45.1048 32.2763Z" fill="#1D1D1B"/>
<path d="M51.0087 26.7846H55.566C55.7106 26.7825 55.8528 26.8207 55.9765 26.8948C56.1001 26.9689 56.2003 27.076 56.2655 27.2037C56.3329 27.3207 56.3674 27.4535 56.3652 27.5882V31.4155C56.2728 31.3046 56.1577 31.2144 56.0274 31.1508C55.8972 31.0873 55.7548 31.0517 55.6097 31.0467H55.524C55.3787 31.0516 55.236 31.0871 55.1055 31.1506C54.9749 31.2142 54.8595 31.3045 54.7668 31.4155V28.39H51.1294C50.663 28.39 50.3715 28.1839 50.255 27.7718C50.2458 27.7203 50.2412 27.6682 50.241 27.6159V27.5518C50.241 27.2297 50.4223 26.9861 50.7848 26.821C50.8576 26.7997 50.9328 26.7875 51.0087 26.7846ZM55.5555 31.2528C55.7147 31.2517 55.8704 31.2987 56.0019 31.3875C56.1335 31.4763 56.2346 31.6027 56.2918 31.7498C56.3349 31.8456 56.3564 31.9497 56.3547 32.0546V36.5227C56.3595 36.6923 56.3085 36.8587 56.2095 36.9971C56.1104 37.1354 55.9687 37.2382 55.8056 37.2899C55.7338 37.3128 55.6589 37.3251 55.5835 37.3263H55.5135C55.2034 37.3263 54.965 37.1583 54.7983 36.8223C54.7596 36.7175 54.7406 36.6066 54.7423 36.495V32.0615C54.7406 31.8979 54.7901 31.7378 54.8841 31.6032C54.978 31.4686 55.1118 31.3661 55.267 31.3099C55.3599 31.2731 55.4589 31.2538 55.559 31.2528H55.5555ZM56.2043 26.7846H60.0989C60.2478 26.7877 60.3928 26.8328 60.5168 26.9147C60.6407 26.9966 60.7384 27.1119 60.7984 27.247C60.8446 27.3422 60.8691 27.4462 60.8701 27.5518V27.6228C60.8681 27.7284 60.8435 27.8324 60.798 27.9279C60.7524 28.0234 60.687 28.1083 60.606 28.177C60.5205 28.2525 60.4206 28.3103 60.3121 28.3469C60.2037 28.3834 60.089 28.3981 59.9747 28.39H56.596C56.5932 28.3903 56.5904 28.39 56.5877 28.389C56.585 28.3881 56.5826 28.3865 56.5806 28.3845C56.5786 28.3826 56.5771 28.3802 56.5761 28.3775C56.5751 28.3749 56.5748 28.372 56.5751 28.3693V27.531C56.57 27.3891 56.5347 27.2498 56.4714 27.1224C56.4081 26.9949 56.3183 26.8822 56.2078 26.7916L56.2043 26.7846Z" fill="#1D1D1B"/>
<path d="M64.6073 26.7846H65.0375C65.1996 26.7754 65.3607 26.8146 65.5001 26.897C65.6394 26.9795 65.7506 27.1014 65.8192 27.247C65.8737 27.3544 65.9013 27.4732 65.8997 27.5934C65.8997 27.9571 65.7021 28.2151 65.3103 28.3675C65.2377 28.3853 65.1631 28.3946 65.0883 28.3952H62.7571C62.6083 28.3918 62.4634 28.3465 62.3396 28.2646C62.2157 28.1827 62.1179 28.0677 62.0576 27.9328C62.0121 27.8374 61.9877 27.7335 61.9859 27.628V27.564C61.9888 27.4133 62.0358 27.2666 62.1212 27.1418C62.2065 27.017 62.3266 26.9194 62.4668 26.8608C62.5408 26.832 62.6176 26.8105 62.6959 26.7968C63.4689 26.7875 64.106 26.7835 64.6073 26.7846ZM61.9842 28.2342C62.0897 28.3556 62.2212 28.4521 62.3691 28.5168C62.517 28.5816 62.6777 28.6128 62.8393 28.6083H63.5826C63.5866 28.6101 63.59 28.6131 63.5925 28.6167C63.5949 28.6204 63.5963 28.6246 63.5965 28.629V36.5747C63.5938 36.7225 63.5481 36.8664 63.465 36.9892C63.3819 37.1121 63.2649 37.2086 63.1279 37.2674C63.0336 37.3129 62.9302 37.3372 62.8253 37.3384H62.7606C62.433 37.3384 62.1859 37.1583 62.0191 36.7981C61.9972 36.7243 61.9849 36.6481 61.9824 36.5712L61.9842 28.2342ZM63.8344 31.3376H65.0952C65.4532 31.3376 65.7114 31.5247 65.87 31.8987C65.8945 31.9844 65.9069 32.073 65.9067 32.162C65.9067 32.4795 65.7318 32.7231 65.382 32.8928C65.2692 32.9292 65.1509 32.9462 65.0323 32.943H63.8414C63.8274 32.943 63.8204 32.943 63.8204 32.9292V31.3584C63.8204 31.3446 63.8245 31.3376 63.8326 31.3376H63.8344ZM65.828 26.8764H65.842C66.3763 27.0023 66.8644 27.2734 67.2515 27.6592C67.3751 27.7613 67.486 27.8776 67.582 28.0056C67.9716 28.5155 68.1883 29.1345 68.2011 29.7738V29.9366C68.2011 30.7032 67.8892 31.4115 67.2655 32.0615C66.9372 32.368 66.5509 32.607 66.1288 32.7647C66.0378 32.7924 65.9382 32.8201 65.828 32.8495C65.9974 32.6662 66.0959 32.4294 66.106 32.181V32.1031C66.1016 31.9299 66.0525 31.7607 65.9634 31.6116C65.8743 31.4625 65.7483 31.3383 65.5971 31.251C65.8404 31.1678 66.0563 31.0205 66.2215 30.825C66.3556 30.6742 66.4567 30.4975 66.5182 30.306C66.5798 30.1145 66.6004 29.9124 66.5789 29.7126C66.5573 29.5128 66.4941 29.3196 66.3931 29.1453C66.2921 28.971 66.1557 28.8193 65.9924 28.7C65.8738 28.6094 65.7431 28.5354 65.6041 28.4801C65.7548 28.3958 65.8809 28.2743 65.9701 28.1274C66.0593 27.9805 66.1085 27.8132 66.113 27.6419V27.557C66.1039 27.3036 66.0027 27.0619 65.828 26.8764Z" fill="#1D1D1B"/>
<path d="M84.6519 26.7846H84.6956C84.8451 26.7936 84.9905 26.8367 85.1203 26.9107C85.2502 26.9846 85.361 27.0872 85.4441 27.2106C86.1436 27.9034 86.9014 28.6538 87.7175 29.462C87.2453 29.9313 87.0075 30.1825 87.0075 30.2154C86.9128 30.3593 86.8607 30.5267 86.8571 30.6985V30.8544C84.9405 28.9782 83.9821 28.0292 83.9821 28.0073C83.9152 27.8872 83.878 27.753 83.8737 27.6159V27.5518C83.8767 27.404 83.9225 27.2602 84.0055 27.1374C84.0886 27.0146 84.2055 26.918 84.3424 26.8591C84.439 26.8126 84.5445 26.7872 84.6519 26.7846ZM83.8737 28.2272L85.4808 29.8257V36.5365C85.483 36.7046 85.4302 36.8688 85.3303 37.0046C85.2303 37.1404 85.0887 37.2405 84.9265 37.2899C84.8666 37.3125 84.8033 37.3248 84.7393 37.3263H84.6082C84.4823 37.3193 84.36 37.2819 84.252 37.2173C84.1441 37.1527 84.0538 37.0628 83.9891 36.9557C83.9101 36.8381 83.8676 36.7003 83.8667 36.5591L83.8737 28.2272ZM90.0346 27.4739V29.7252C88.9119 30.8579 88.3337 31.4236 88.2999 31.4224C88.1861 31.496 88.0544 31.5379 87.9186 31.5437H87.8329C87.5077 31.5437 87.2593 31.3636 87.088 31.0033C87.0701 30.9196 87.0602 30.8343 87.0582 30.7488C87.0671 30.599 87.1104 30.4532 87.185 30.3226C87.2596 30.192 87.3634 30.0801 87.4884 29.9954C88.2987 29.1861 89.1474 28.3456 90.0346 27.4739ZM91.0472 26.7811H91.0892C91.4249 26.7811 91.6738 26.9612 91.8359 27.3215C91.8549 27.3834 91.8666 27.4473 91.8709 27.512V36.5902C91.8648 36.7199 91.8247 36.8458 91.7544 36.9555C91.6842 37.0651 91.5863 37.1547 91.4704 37.2154C91.3636 37.2843 91.2393 37.3215 91.1119 37.3228H91.0175C90.8813 37.3188 90.7485 37.2792 90.6327 37.208C90.517 37.1369 90.4222 37.0367 90.3582 36.9176C90.2902 36.7957 90.2552 36.6585 90.2567 36.5192V27.5882C90.2536 27.4213 90.3041 27.2577 90.4009 27.1211C90.4977 26.9845 90.6358 26.8818 90.7954 26.8279C90.8756 26.7972 90.9612 26.7825 91.0472 26.7846V26.7811Z" fill="#1D1D1B"/>
<path d="M0 16.3262V32.2175L10.5452 22.3564L0 16.3262Z" fill="#D31216"/>
<path d="M10.5452 22.3563L0 32.2174H10.5452V22.3563Z" fill="#E73231"/>
<path d="M0 32.2174L10.5452 42.0785V32.2174H0Z" fill="#B71918"/>
<path d="M0 48.1104L10.5452 42.0785L0 32.2174V48.1104Z" fill="#515151"/>
<path d="M0 16.3261L10.5452 22.3564L13.8976 8.38049L0 16.3261Z" fill="#BF1826"/>
<path d="M13.8975 8.38046L27.795 12.4936V0.434814L13.8975 8.38046Z" fill="#ED6869"/>
<path d="M27.7952 0.434814V12.4936L41.9953 8.55538L27.7952 0.434814Z" fill="#E83E3F"/>
<path d="M10.5452 22.3564L19.1702 17.4241L13.8976 8.38049L10.5452 22.3564Z" fill="#E84342"/>
<path d="M13.8975 8.38049L19.17 17.4241L27.795 12.4936L13.8975 8.38049Z" fill="#E73231"/>
<path d="M27.7952 64L41.9953 55.8812L27.7952 51.9413V64Z" fill="#5A5B5C"/>
<path d="M55.5886 48.1105L45.0435 42.0785L41.9954 55.8812L55.5886 48.1105Z" fill="#ABAEAF"/>
<path d="M36.4185 47.009L41.9953 55.8812L45.0434 42.0785L36.4185 47.009Z" fill="#5D6061"/>
<path d="M27.7952 51.9413L41.9953 55.8812L36.4184 47.009L27.7952 51.9413Z" fill="#333333"/>
<path d="M27.795 51.9413L13.8975 56.0544L27.795 64V51.9413Z" fill="#A9A9A9"/>
<path d="M0 48.1105L13.8976 56.0544L10.5452 42.0785L0 48.1105Z" fill="#353535"/>
<path d="M10.5452 42.0785L13.8976 56.0544L19.1702 47.009L10.5452 42.0785Z" fill="#5F6160"/>
<path d="M19.17 47.009L13.8975 56.0544L27.795 51.9413L19.17 47.009Z" fill="#575656"/>
<path d="M82.0759 35.7123L74.4023 28.5494L67.5715 35.7261L82.0759 35.7123Z" fill="#A9A9A9"/>
<path d="M41.9953 8.55542L27.7952 12.4936L36.4184 17.4241L41.9953 8.55542Z" fill="#EA5C5C"/>
<path d="M41.9953 8.55542L36.4185 17.4241L45.0434 22.3564L41.9953 8.55542Z" fill="#B71918"/>
</svg>
