<svg width="32" height="48" viewBox="0 0 32 48" fill="none" xmlns="http://www.w3.org/2000/svg">
<path d="M16 48C16 48 32 31.254 32 18C32 8.746 25.942 0 16 0C6.058 0 0 8.746 0 18C0 31.254 16 48 16 48ZM7 15C7 13.22 7.52784 11.4799 8.51677 9.99987C9.50571 8.51983 10.9113 7.36627 12.5558 6.68508C14.2004 6.0039 16.01 5.82567 17.7558 6.17293C19.5016 6.5202 21.1053 7.37737 22.364 8.63604C23.6226 9.89471 24.4798 11.4984 24.8271 13.2442C25.1743 14.99 24.9961 16.7996 24.3149 18.4442C23.6337 20.0887 22.4802 21.4943 21.0001 22.4832C19.5201 23.4722 17.78 24 16 24C13.6131 24 11.3239 23.0518 9.63604 21.364C7.94821 19.6761 7 17.3869 7 15Z" fill="#D83933"/>
</svg>
